<?xml version="1.0" standalone="no"?>
<!DOCTYPE svg PUBLIC "-//W3C//DTD SVG 20010904//EN"
 "http://www.w3.org/TR/2001/REC-SVG-20010904/DTD/svg10.dtd">
<svg version="1.0" xmlns="http://www.w3.org/2000/svg"
 width="1024.000000pt" height="1024.000000pt" viewBox="0 0 1024.000000 1024.000000"
 preserveAspectRatio="xMidYMid meet">
<metadata>
Created by potrace 1.14, written by Peter Selinger 2001-2017
</metadata>
<g transform="translate(0.000000,1024.000000) scale(0.100000,-0.100000)"
fill="#000000" stroke="none">
<path d="M4444 9445 c-9 -37 4 -113 31 -172 13 -29 21 -53 17 -53 -4 0 -54 16
-112 34 -58 19 -109 31 -113 26 -16 -15 50 -133 118 -212 l66 -77 -43 -11
c-512 -131 -976 -391 -1332 -746 -242 -242 -395 -455 -531 -739 -131 -272
-205 -524 -260 -876 l-5 -36 -83 -6 c-232 -18 -468 -126 -618 -284 -168 -176
-258 -426 -259 -714 -1 -347 173 -682 468 -904 260 -195 580 -267 892 -200
l85 18 111 -109 c170 -168 391 -316 628 -422 130 -58 387 -147 526 -182 47
-12 87 -23 89 -25 2 -2 -20 -30 -48 -62 l-52 -59 -64 32 c-147 74 -254 69
-336 -15 -32 -33 -49 -62 -57 -94 -27 -107 -6 -269 51 -399 24 -55 25 -59 10
-105 -21 -67 -28 -254 -13 -326 6 -32 29 -93 51 -136 60 -121 142 -194 263
-235 16 -5 18 -13 12 -49 -3 -23 -9 -125 -12 -227 -7 -192 3 -331 31 -423 11
-37 12 -58 3 -101 -9 -42 -9 -64 1 -96 18 -60 90 -134 169 -172 58 -29 77 -33
167 -36 120 -5 192 8 273 49 141 70 208 174 265 410 l32 130 70 -8 c79 -9 255
-11 359 -3 l69 5 23 -99 c25 -109 32 -128 81 -234 83 -181 242 -262 488 -250
72 4 102 11 150 33 132 63 191 158 167 271 -9 43 -8 62 3 94 17 49 34 203 28
253 l-5 39 38 -20 c239 -120 554 -139 816 -48 126 44 214 102 328 216 140 141
199 244 236 411 21 96 21 333 0 494 -28 212 -16 292 49 343 46 36 76 29 124
-28 55 -65 104 -90 176 -90 94 0 175 53 222 144 23 45 25 59 21 145 -5 127
-40 206 -131 295 -230 224 -636 199 -871 -55 -161 -174 -210 -363 -187 -727 8
-132 8 -211 1 -267 -19 -148 -93 -259 -209 -314 -51 -24 -67 -26 -171 -25
-105 0 -123 3 -201 33 -48 17 -95 38 -105 45 -17 13 -16 16 14 50 37 42 62 89
88 166 15 43 19 84 19 185 0 113 -4 142 -28 225 -58 194 -174 397 -316 552
-39 42 -71 81 -71 86 0 6 35 18 78 27 138 30 423 130 567 199 244 117 376 208
561 389 l122 118 83 -18 c128 -28 386 -25 494 5 230 65 399 165 553 326 157
165 267 386 302 606 13 85 13 300 -1 376 -16 94 -58 222 -96 298 -141 281
-435 471 -760 493 l-91 6 -7 61 c-19 179 -100 483 -186 699 -233 586 -702
1093 -1302 1407 -133 70 -320 154 -385 174 -26 8 -78 35 -117 61 -183 125
-425 206 -790 264 -376 61 -493 94 -622 177 -37 24 -74 44 -80 44 -7 0 -15
-11 -19 -25z m266 -235 c47 -16 150 -38 230 -50 560 -83 791 -157 1039 -335
58 -42 121 -76 192 -104 314 -123 693 -386 935 -648 451 -488 666 -1014 710
-1738 3 -60 3 -107 -1 -103 -4 4 -9 27 -12 50 -3 40 -30 217 -38 263 -41 212
-122 471 -203 645 -17 36 -37 82 -46 103 -8 20 -50 99 -92 175 -43 75 -82 146
-88 157 -6 11 -17 27 -24 35 -20 24 -82 114 -89 130 -4 8 -9 17 -12 20 -4 3
-19 23 -36 45 -167 227 -465 510 -672 638 -101 62 -333 181 -340 174 -2 -3 16
-15 40 -27 24 -12 82 -49 128 -81 46 -32 103 -71 127 -86 23 -16 40 -33 38
-40 -3 -7 0 -15 6 -19 7 -4 8 -3 4 4 -13 21 4 13 77 -37 80 -53 207 -168 207
-185 0 -6 10 -16 23 -21 12 -6 23 -20 25 -32 2 -12 9 -20 15 -17 7 2 30 -15
52 -38 22 -23 34 -38 28 -34 -7 4 -13 2 -13 -3 0 -6 7 -11 16 -11 21 0 95 -81
89 -98 -3 -7 -1 -11 4 -7 5 3 19 -8 31 -25 11 -16 34 -43 50 -59 30 -29 41
-59 18 -45 -7 4 -5 -2 6 -14 10 -12 22 -19 26 -17 10 6 24 -25 21 -44 -1 -7 2
-10 7 -7 5 3 23 -16 39 -43 23 -37 28 -52 20 -66 -6 -12 -6 -16 1 -11 6 3 22
-6 36 -21 17 -18 22 -30 14 -34 -6 -4 -7 -12 -3 -19 5 -9 9 -9 15 -1 4 7 11 2
18 -14 7 -15 8 -25 2 -25 -6 0 -10 -8 -9 -17 0 -11 3 -13 6 -5 15 36 37 -8 36
-73 -1 -36 0 -37 4 -6 l4 33 20 -37 c11 -21 18 -43 15 -51 -3 -8 -1 -13 5 -11
12 3 40 -73 32 -86 -3 -6 -2 -7 4 -4 14 9 35 -65 23 -77 -7 -7 -10 -4 -10 7 0
9 -5 17 -10 17 -6 0 -9 -13 -8 -30 2 -27 18 -45 18 -20 0 5 9 2 20 -7 11 -10
20 -22 20 -28 0 -5 -4 -5 -8 2 -4 7 -9 -12 -10 -42 -2 -44 1 -55 13 -55 24 0
17 -28 -7 -32 -15 -2 -24 -11 -26 -25 -2 -13 1 -23 6 -23 6 0 9 -8 7 -17 -2
-10 -4 -24 -4 -30 -1 -18 -19 -16 -23 2 -2 13 -5 12 -15 -4 -11 -17 -10 -19 2
-15 9 4 15 0 15 -7 0 -8 3 -25 7 -39 5 -20 1 -18 -21 13 -14 21 -23 43 -20 49
4 7 2 8 -4 4 -6 -3 -16 2 -21 13 -11 21 2 31 40 31 12 0 19 7 19 20 0 15 -7
20 -25 20 -14 0 -28 1 -32 3 -5 1 -9 -8 -11 -20 -6 -42 -27 -25 -23 17 1 12 0
12 -7 2 -7 -10 -18 -2 -45 31 -20 25 -33 48 -29 52 4 5 2 5 -4 2 -6 -3 -26 9
-44 28 -39 40 -34 47 5 11 15 -14 32 -23 39 -20 7 3 19 -2 26 -11 7 -8 25 -15
40 -15 23 0 27 4 23 20 -4 16 -14 20 -52 20 -53 0 -71 12 -64 41 4 14 11 18
22 13 48 -20 51 -18 51 25 l0 41 -54 0 c-49 0 -55 2 -59 23 -2 12 -5 3 -6 -20
-1 -37 2 -43 19 -43 15 0 20 -7 20 -26 0 -24 -3 -25 -27 -19 -16 3 -35 13 -43
22 -13 14 -13 15 8 10 13 -3 20 -1 16 5 -3 5 -17 7 -30 4 -14 -4 -24 -2 -24 4
0 5 5 10 11 10 5 0 7 5 4 10 -3 6 -11 10 -16 10 -6 0 -7 -4 -4 -10 12 -19 -6
-10 -53 26 -26 20 -46 40 -44 45 1 5 -1 8 -5 7 -15 -5 -123 64 -117 73 3 6 0
9 -7 8 -8 -2 -33 5 -56 16 -31 13 -39 21 -30 28 8 6 7 7 -5 4 -23 -8 -89 14
-81 26 3 6 1 7 -5 3 -6 -3 -37 2 -69 13 -32 11 -73 23 -92 26 -22 5 -29 10
-21 15 7 4 -81 7 -196 5 -182 -2 -218 -5 -279 -24 -38 -12 -81 -19 -95 -16
-19 4 -21 3 -10 -5 13 -9 13 -10 0 -10 -8 0 -52 -16 -98 -35 -46 -18 -89 -33
-95 -31 -7 1 -8 1 -4 -2 4 -2 0 -10 -10 -18 -23 -17 -36 -18 -28 -1 4 6 -2 2
-12 -9 -24 -28 -61 -47 -75 -38 -6 4 -8 3 -5 -4 4 -5 -14 -22 -40 -37 -27 -15
-56 -34 -65 -42 -9 -9 -23 -12 -30 -7 -7 4 -10 3 -5 -1 11 -13 -23 -44 -41
-38 -9 4 -13 2 -9 -3 5 -10 -73 -94 -87 -94 -3 0 -6 7 -6 16 0 8 -4 12 -10 9
-5 -3 -10 -17 -10 -30 0 -16 -22 -46 -67 -92 -36 -37 -63 -62 -59 -55 4 6 2
12 -4 12 -7 0 -10 -7 -6 -15 6 -17 -23 -57 -36 -49 -4 3 -5 -2 -2 -11 5 -11 2
-14 -10 -9 -11 4 -15 2 -13 -7 2 -8 2 -11 0 -6 -3 4 -9 5 -14 2 -5 -4 -6 2 -2
11 4 12 3 15 -5 10 -8 -4 -12 0 -12 11 0 11 -6 25 -12 32 -11 11 -10 13 5 8
14 -5 17 0 17 28 0 33 -2 35 -35 35 -21 0 -38 -6 -45 -17 -9 -14 -10 -14 -7
-2 4 12 -3 16 -29 16 -21 0 -30 -3 -22 -8 7 -4 10 -11 7 -14 -4 -3 -19 11 -35
32 -15 21 -34 42 -42 47 -12 7 -12 10 -1 18 11 8 11 9 -2 5 -10 -3 -45 20 -95
64 -75 66 -234 178 -306 215 -18 9 -36 21 -39 26 -3 5 -10 9 -15 9 -16 -2
-134 53 -134 62 0 4 -4 6 -8 3 -9 -5 -194 48 -188 55 2 2 -62 5 -142 7 -226 5
-364 -22 -565 -112 -32 -15 -63 -23 -69 -20 -7 5 -8 2 -3 -6 6 -10 4 -12 -9
-7 -9 4 -15 3 -12 -2 3 -4 -27 -27 -67 -51 -40 -24 -75 -47 -78 -53 -4 -5 -12
-6 -19 -2 -9 5 -11 4 -6 -3 7 -11 -6 -17 -27 -13 -5 1 -6 -2 -3 -7 7 -12 -37
-53 -60 -57 -11 -1 -18 -7 -17 -13 4 -16 -68 -92 -80 -85 -6 3 -7 2 -4 -3 7
-12 -91 -140 -105 -136 -5 1 -7 -1 -4 -6 3 -5 -13 -35 -35 -68 -23 -32 -57
-90 -76 -129 -20 -38 -40 -73 -46 -77 -5 -3 -11 -17 -13 -30 -1 -12 -9 -36
-17 -51 -13 -25 -16 -26 -20 -10 -2 10 -4 1 -4 -19 0 -20 -4 -43 -10 -50 -5
-7 -10 -26 -11 -43 -1 -16 -7 -32 -12 -33 -6 -2 -8 -7 -5 -12 3 -4 -1 -32 -9
-62 -12 -43 -15 -48 -16 -23 l-2 30 -9 -27 c-7 -17 -7 -34 -1 -44 5 -9 6 -35
1 -58 -4 -22 -10 -63 -14 -91 -3 -27 -12 -56 -18 -64 -9 -12 -9 -13 1 -7 6 4
12 4 12 -1 0 -16 -15 -31 -35 -35 -16 -3 -19 -10 -17 -35 3 -28 -1 -33 -25
-39 -25 -7 -25 -8 -8 -15 16 -7 14 -8 -10 -6 -30 2 -30 2 -36 77 -4 41 -7 164
-8 272 -3 507 142 1026 404 1446 229 368 610 708 1037 927 183 94 501 202 658
225 74 10 95 10 169 -7 l84 -18 -49 -12 c-41 -9 -44 -11 -18 -12 23 -1 41 -12
72 -46 36 -39 38 -45 21 -50 -10 -4 -24 -3 -30 1 -7 4 -9 3 -6 -3 6 -10 -50
-40 -65 -35 -5 1 -8 -5 -8 -13 0 -8 -6 -15 -12 -15 -15 0 -81 -60 -75 -67 3
-2 27 12 54 33 107 82 200 104 523 125 l194 13 -42 17 c-23 10 -42 23 -42 29
0 6 -4 8 -10 5 -13 -8 -72 24 -65 35 4 6 12 10 18 10 7 0 6 -4 -3 -10 -8 -5
-10 -10 -5 -10 108 -6 136 -4 140 11 4 12 13 15 28 12 22 -5 22 -5 -1 12 -36
26 -195 80 -381 130 -91 24 -200 55 -241 70 -41 14 -103 35 -137 46 -33 10
-72 28 -85 39 -23 19 -23 19 41 4 81 -18 313 -56 317 -51 2 2 -24 11 -58 21
-35 10 -90 32 -123 51 -67 38 -141 92 -110 80 11 -3 58 -20 105 -35z m-547
-1909 c111 -31 242 -90 344 -156 105 -69 265 -222 332 -320 101 -147 207 -400
253 -607 l24 -106 17 81 c67 305 166 526 323 717 163 197 461 369 714 409 92
15 255 14 342 -3 225 -43 398 -143 598 -345 290 -291 431 -655 431 -1111 0
-181 -13 -275 -59 -435 -103 -357 -329 -703 -609 -931 -139 -114 -371 -236
-598 -314 -222 -77 -583 -141 -905 -161 -622 -37 -1333 84 -1720 294 -110 60
-261 160 -311 207 -8 8 -46 42 -83 75 -79 70 -205 223 -289 350 -212 321 -308
690 -277 1057 43 516 295 951 682 1179 91 54 229 110 318 130 118 26 359 21
473 -10z m3337 -258 c-11 -17 -11 -17 -6 0 3 10 6 24 7 30 0 9 2 9 5 0 3 -7 0
-20 -6 -30z m33 -78 c4 -34 3 -42 -3 -25 -8 25 -13 87 -6 79 2 -2 6 -26 9 -54z
m-2502 -67 c20 -25 26 -47 7 -26 -26 26 -40 48 -33 48 4 0 15 -10 26 -22z m61
-62 c7 4 8 2 4 -5 -9 -14 -36 3 -36 23 0 6 5 3 11 -7 6 -9 15 -14 21 -11z
m-2824 -438 l-3 -43 -60 -7 c-104 -11 -199 -35 -268 -66 -59 -27 -86 -52 -57
-52 6 0 10 5 10 10 0 6 5 10 11 10 5 0 7 -4 4 -10 -3 -5 -1 -10 4 -10 6 0 11
-16 11 -35 0 -34 1 -35 40 -35 33 0 40 3 40 20 0 13 7 20 20 20 29 0 25 27 -7
55 -16 13 -25 26 -22 29 3 3 16 -4 29 -16 l23 -22 -6 31 c-7 36 6 43 76 37 33
-2 47 1 51 11 4 10 20 15 51 15 l45 0 0 -124 0 -124 -102 5 c-66 3 -119 0
-148 -8 -25 -6 -66 -12 -92 -12 -40 -1 -44 -3 -30 -14 15 -11 16 -12 1 -13 -9
0 -22 -7 -29 -15 -7 -9 -21 -13 -35 -9 -17 4 -24 0 -28 -16 -3 -11 -11 -19
-17 -18 -7 2 -15 -3 -18 -11 -3 -9 0 -11 9 -6 10 5 11 5 4 -3 -5 -5 -19 -12
-29 -14 -11 -1 -22 -10 -24 -18 -5 -13 -3 -13 14 0 12 9 10 4 -5 -13 -19 -20
-27 -24 -38 -16 -9 8 -13 8 -13 1 0 -6 5 -14 10 -17 6 -4 8 -11 4 -16 -3 -6
-12 -5 -22 3 -13 11 -15 10 -9 -10 4 -16 -7 -46 -34 -96 -66 -122 -74 -161
-72 -331 2 -150 5 -172 58 -340 3 -11 -12 14 -34 56 -143 273 -148 603 -13
879 28 58 57 95 127 165 49 50 116 105 148 124 101 59 266 106 390 110 l38 1
-3 -42z m5857 27 c329 -58 559 -297 626 -652 20 -105 7 -330 -25 -438 -24 -80
-104 -261 -112 -253 -3 4 29 123 63 233 39 123 50 268 30 401 -19 130 -46 221
-60 202 -6 -9 -7 -8 -3 5 3 9 0 29 -6 43 -11 23 -13 24 -19 7 -7 -17 -8 -17
-8 0 -1 10 -5 15 -11 12 -5 -3 -10 -2 -10 4 0 5 -9 12 -19 16 -12 4 -18 12
-14 21 4 10 12 12 27 8 18 -6 19 -5 7 10 -7 9 -20 16 -27 16 -8 0 -14 5 -14
11 0 5 5 7 10 4 18 -11 11 1 -12 21 -16 13 -19 14 -10 2 9 -10 9 -18 3 -23 -6
-3 -13 7 -17 22 -7 29 -65 97 -99 115 -11 6 5 -12 35 -40 30 -29 48 -49 39
-46 -12 4 -16 -1 -16 -20 0 -16 5 -26 14 -26 8 0 11 -4 8 -10 -3 -5 -13 -10
-21 -10 -10 0 -14 12 -14 45 0 43 -1 45 -30 45 -27 0 -30 -3 -30 -30 0 -16 5
-30 10 -30 6 0 10 -9 10 -20 0 -11 -6 -20 -14 -20 -7 0 -25 9 -39 20 -27 22
-52 26 -62 10 -8 -13 -25 -13 -25 1 0 5 5 7 11 4 6 -4 13 2 16 14 3 12 13 21
24 21 15 0 19 7 19 40 0 22 5 40 11 40 5 0 7 5 4 10 -10 16 -25 1 -25 -26 0
-21 -4 -24 -40 -24 -33 0 -40 -3 -40 -20 0 -11 6 -20 13 -21 9 0 9 -2 0 -5 -7
-3 -9 -13 -6 -21 5 -13 2 -15 -11 -10 -10 4 -24 7 -32 7 -9 0 -13 4 -10 8 3 5
-8 6 -25 4 -16 -2 -37 2 -46 9 -12 10 -14 10 -9 2 5 -9 -1 -13 -23 -13 -16 0
-33 5 -36 10 -3 6 -12 10 -18 10 -7 0 -6 -4 3 -10 12 -7 8 -10 -15 -10 -16 0
-40 -3 -52 -6 -22 -6 -22 -4 -27 127 -2 74 -7 153 -11 177 l-7 42 40 0 c21 0
79 -7 127 -15z m-5978 -101 c-3 -3 -12 -4 -19 -1 -8 3 -5 6 6 6 11 1 17 -2 13
-5z m-171 -56 c5 -7 2 -9 -8 -6 -8 4 -21 2 -29 -4 -11 -8 -11 -9 3 -4 10 3 20
1 23 -4 4 -6 -5 -10 -19 -10 -34 0 -43 18 -14 29 31 13 36 13 44 -1z m5841
-80 c-3 -8 -6 -5 -6 6 -1 11 2 17 5 13 3 -3 4 -12 1 -19z m537 -133 c11 -8 16
-15 10 -15 -5 0 -18 7 -28 15 -11 8 -16 15 -10 15 5 0 18 -7 28 -15z m136 -54
c0 -10 -41 -23 -49 -16 -2 3 1 5 8 5 7 0 9 5 6 10 -3 6 3 10 14 10 12 0 21 -4
21 -9z m-5950 -21 c0 -5 -2 -10 -4 -10 -3 0 -8 5 -11 10 -3 6 -1 10 4 10 6 0
11 -4 11 -10z m6014 -16 c3 -8 2 -12 -4 -9 -6 3 -10 10 -10 16 0 14 7 11 14
-7z m-30 -15 c-3 -6 2 -17 12 -25 18 -13 18 -14 -1 -8 -16 6 -18 5 -7 -7 6 -7
12 -18 12 -23 0 -6 -8 1 -17 14 -15 21 -19 41 -14 66 1 3 6 2 11 -1 6 -4 8
-11 4 -16z m66 -9 c0 -11 -7 -20 -15 -20 -8 0 -15 5 -15 10 0 6 5 10 11 10 5
0 7 5 4 10 -3 6 -1 10 4 10 6 0 11 -9 11 -20z m-6374 -47 c38 -25 44 -33 49
-73 11 -83 45 -289 51 -304 4 -9 -6 -20 -28 -30 -62 -30 -106 -75 -140 -144
-29 -59 -33 -76 -33 -147 0 -73 4 -88 37 -156 38 -76 110 -163 92 -109 -5 14
-9 72 -9 130 0 116 17 170 70 223 31 31 45 34 45 11 0 -8 20 -78 45 -154 51
-155 132 -321 206 -423 27 -37 49 -72 49 -77 0 -18 -115 -32 -235 -27 -137 5
-249 33 -375 95 -109 54 -231 177 -288 292 -53 107 -71 178 -79 305 -7 118 11
223 56 333 102 248 319 361 487 255z m6022 27 c131 -35 266 -208 307 -394 28
-124 18 -313 -22 -428 -35 -100 -101 -212 -166 -279 -85 -89 -261 -173 -417
-199 -98 -17 -276 -18 -292 -2 -7 7 -20 12 -29 12 -33 0 -29 18 18 81 81 111
172 324 250 589 7 24 79 -63 98 -118 31 -91 30 -178 -1 -268 -16 -45 77 63
103 120 24 53 28 73 28 156 0 81 -4 102 -24 140 -37 70 -70 108 -123 142 -39
25 -48 36 -44 53 3 11 16 93 28 183 l22 163 34 21 c71 44 141 53 230 28z
m-5788 -40 c0 -5 -2 -10 -4 -10 -3 0 -8 5 -11 10 -3 6 -1 10 4 10 6 0 11 -4
11 -10z m-13 -67 c-3 -10 -5 -4 -5 12 0 17 2 24 5 18 2 -7 2 -21 0 -30z m6173
-18 c14 -19 14 -19 -2 -6 -10 7 -18 18 -18 24 0 6 1 8 3 6 1 -2 9 -13 17 -24z
m-6153 -172 c-3 -10 -5 -2 -5 17 0 19 2 27 5 18 2 -10 2 -26 0 -35z m5027
-845 c-38 -65 -294 -348 -315 -348 -4 0 14 22 41 49 57 57 123 138 163 199 15
23 34 42 42 42 8 0 15 3 15 8 0 8 48 62 56 62 3 0 2 -6 -2 -12z m-4349 -398
c10 -11 16 -20 13 -20 -3 0 -13 9 -23 20 -10 11 -16 20 -13 20 3 0 13 -9 23
-20z m3970 -10 c-10 -11 -22 -20 -28 -20 -5 0 1 9 14 20 31 25 37 25 14 0z
m869 -579 c127 -63 206 -172 206 -286 0 -33 -5 -67 -10 -75 -7 -11 -10 -5 -10
23 0 34 -2 37 -20 27 -16 -9 -26 -3 -64 35 -25 25 -49 46 -53 46 -23 4 -53 20
-53 29 0 6 -4 9 -9 6 -12 -8 -42 4 -36 14 3 4 -9 13 -27 19 -44 16 -70 12 -28
-4 34 -12 34 -13 -38 -13 -73 -1 -136 -16 -160 -40 -8 -7 -18 -9 -24 -6 -7 5
-4 12 7 21 17 12 17 13 2 13 -13 0 -17 10 -18 48 -1 26 -1 50 0 54 0 4 -5 5
-13 2 -8 -3 -17 0 -22 7 -4 8 -3 10 4 5 7 -4 12 -3 12 3 0 6 7 7 17 4 11 -4
14 -3 9 5 -7 11 13 17 38 13 5 -1 16 1 25 5 27 11 131 16 131 6 0 -5 11 -7 23
-5 14 3 31 -2 40 -12 10 -9 17 -11 17 -5 0 8 6 8 21 0 11 -7 23 -10 25 -7 11
11 -87 39 -151 44 -126 10 -279 -49 -359 -137 -32 -36 -35 -44 -24 -58 12 -15
11 -16 -4 -4 -14 11 -18 10 -28 -8 -6 -11 -8 -26 -4 -32 4 -7 3 -8 -4 -4 -12
7 -16 -5 -13 -33 2 -7 -2 -10 -7 -7 -13 8 -22 -17 -15 -43 6 -22 39 -29 45
-10 2 7 27 11 58 11 30 0 58 5 61 10 3 5 9 2 13 -8 4 -10 4 -15 0 -12 -4 4
-15 3 -26 -3 -15 -8 -17 -13 -7 -25 9 -11 9 -28 0 -71 -6 -31 -11 -103 -11
-160 0 -96 -1 -103 -20 -103 -11 0 -20 -7 -20 -15 0 -8 7 -15 15 -15 8 0 15
-6 16 -12 1 -7 5 -2 9 12 7 21 8 17 9 -20 0 -27 -3 -40 -8 -32 -4 7 -7 -50 -7
-128 1 -104 4 -139 13 -136 7 3 10 -1 6 -9 -3 -8 -9 -12 -14 -9 -5 3 -9 -5 -9
-18 0 -19 2 -20 11 -8 8 12 9 11 5 -5 -3 -11 -8 -32 -12 -47 -3 -16 -10 -28
-16 -28 -5 0 -6 -10 -3 -21 5 -14 4 -19 -4 -15 -7 5 -10 -2 -10 -16 2 -33 -18
-78 -35 -78 -8 0 -16 4 -18 9 -1 5 -15 7 -30 4 -48 -9 -33 -52 15 -44 5 1 6
-2 4 -7 -3 -4 -19 -9 -36 -10 -28 -2 -31 0 -31 27 0 16 -5 31 -11 33 -9 3 -9
9 0 25 6 12 11 30 11 40 0 15 -2 16 -10 3 -9 -13 -10 -13 -10 0 -1 11 -4 10
-16 -5 -8 -11 -12 -25 -9 -33 3 -8 0 -10 -7 -6 -8 5 -9 2 -5 -10 4 -10 3 -15
-3 -11 -12 7 -33 -32 -24 -47 4 -6 3 -8 -4 -4 -6 3 -13 2 -17 -4 -3 -5 2 -10
12 -10 15 0 15 -2 3 -9 -8 -6 -17 -8 -21 -5 -4 2 -13 -4 -20 -13 -12 -14 -12
-16 1 -8 8 4 12 5 8 1 -3 -4 -8 -6 -11 -4 -6 4 -90 -71 -101 -91 -5 -9 1 -6
13 7 12 12 29 22 37 22 8 0 13 4 9 9 -3 5 -1 13 5 16 6 4 10 3 9 -2 -1 -4 -1
-20 0 -35 1 -23 6 -28 28 -28 14 0 23 -3 20 -7 -4 -3 -1 -13 5 -22 7 -9 8 -13
4 -9 -5 5 -15 -1 -23 -12 -15 -21 -80 -43 -96 -33 -6 3 -7 1 -4 -4 4 -6 -2
-13 -13 -16 -12 -3 -24 1 -31 11 -8 14 -9 13 -4 -5 5 -19 0 -23 -52 -34 -54
-11 -128 -14 -233 -9 -35 2 -40 5 -25 11 15 6 10 8 -20 7 -52 -2 -96 8 -169
39 -76 32 -169 91 -161 102 3 6 0 13 -6 17 -8 4 -9 3 -5 -4 11 -19 -9 -14 -38
9 -14 11 -24 24 -21 29 3 5 0 12 -6 16 -8 4 -9 3 -5 -4 4 -7 2 -12 -4 -12 -6
0 -10 10 -8 23 4 30 26 27 141 -23 130 -55 206 -73 312 -73 158 0 267 45 365
149 63 68 100 135 124 229 20 78 22 143 11 420 -7 202 -6 240 9 308 27 120 83
223 165 299 117 111 221 149 388 144 91 -2 109 -6 167 -35z m-381 -95 c4 -10
1 -13 -8 -9 -8 3 -12 9 -9 14 7 12 11 11 17 -5z m-48 -26 c-10 -11 -20 -18
-23 -15 -7 6 18 35 31 35 5 0 2 -9 -8 -20z m-3170 -65 c60 -16 104 -30 97 -33
-9 -3 -9 -9 -1 -24 8 -15 8 -19 0 -14 -6 4 -11 0 -11 -11 0 -10 -7 -26 -15
-36 -9 -13 -12 -36 -9 -73 3 -35 1 -54 -7 -54 -7 0 -9 15 -5 43 7 47 -7 24
-17 -30 -6 -31 -5 -32 19 -23 38 15 54 12 54 -10 0 -17 7 -20 40 -20 22 0 40
5 40 11 0 5 5 7 10 4 7 -4 6 -13 -1 -26 -5 -11 -8 -25 -5 -32 2 -7 5 -5 5 4 2
28 87 135 150 187 59 49 60 51 33 55 -18 3 -14 4 13 4 22 0 68 12 102 27 130
56 372 55 512 -1 36 -15 74 -26 85 -25 10 0 16 -2 12 -5 -7 -7 35 -39 47 -35
4 1 7 -3 7 -9 0 -5 5 -7 11 -3 6 3 31 6 56 6 40 -1 44 1 41 21 -2 18 6 26 46
45 27 12 51 20 54 17 3 -3 12 1 20 8 13 10 14 9 7 -3 -7 -12 -6 -13 6 -4 16
13 69 31 114 38 17 3 41 8 55 11 54 14 98 17 112 9 27 -16 151 -158 185 -212
47 -73 138 -256 158 -318 22 -68 8 -214 -28 -294 -55 -124 -176 -209 -331
-233 -71 -11 -79 -15 -94 -42 -8 -17 -26 -45 -40 -62 -22 -30 -27 -32 -66 -27
-77 12 -192 63 -235 104 -82 79 -93 226 -25 317 41 54 81 54 181 3 98 -50 135
-50 205 -2 57 39 209 113 220 106 4 -3 8 0 8 5 0 6 11 11 25 11 18 0 25 5 25
20 0 17 -6 20 -42 19 -35 -1 -38 -2 -18 -8 22 -6 19 -8 -20 -14 -25 -4 -56
-10 -69 -13 -17 -5 -22 -4 -17 4 4 7 3 12 -3 12 -5 0 -11 -6 -14 -12 -2 -7 -4
-1 -4 14 0 20 4 26 18 25 11 -1 19 -5 19 -10 0 -4 5 -5 10 -2 6 4 8 11 5 16
-4 5 3 9 14 9 12 0 21 5 21 10 0 6 -5 10 -11 10 -5 0 -8 4 -4 9 3 5 0 13 -6
17 -7 4 -9 3 -5 -4 10 -16 -7 -22 -22 -6 -10 11 -4 20 36 48 97 70 124 176 67
257 -45 64 -108 99 -181 102 -33 0 -75 -5 -93 -13 -32 -13 -35 -12 -53 10 -10
13 -23 30 -28 39 -14 26 -22 6 -10 -25 11 -29 5 -98 -8 -90 -4 2 -6 -14 -5
-37 2 -39 1 -40 -7 -12 -7 23 -8 14 -5 -35 2 -36 2 -57 -1 -47 -6 18 -39 23
-49 7 -3 -5 -12 -7 -20 -4 -9 4 -18 -3 -24 -17 -7 -17 -10 -19 -10 -7 -1 9 4
20 9 23 6 3 10 15 10 26 0 14 -7 19 -24 19 -14 0 -27 -4 -30 -9 -9 -14 5 -42
17 -34 5 3 7 1 4 -4 -4 -6 0 -30 8 -53 8 -23 15 -48 15 -55 0 -18 -149 -70
-272 -96 -76 -16 -141 -21 -248 -22 -197 -1 -295 19 -490 101 -94 39 -193 99
-185 112 3 5 0 12 -6 16 -8 4 -9 3 -5 -4 13 -21 -2 -13 -68 34 l-64 46 25 82
c14 44 32 92 40 105 l16 24 -31 -21 c-17 -12 -50 -45 -75 -72 -25 -28 -49 -50
-54 -50 -6 0 -101 77 -148 121 -15 14 84 110 104 100 9 -4 65 -21 126 -36z
m-457 -50 c77 -43 110 -68 244 -182 141 -121 312 -243 415 -296 185 -95 393
-147 593 -147 116 0 271 20 339 44 59 21 59 21 9 -17 -147 -112 -140 -392 13
-521 l31 -26 -75 -35 c-98 -45 -184 -65 -332 -75 -210 -15 -437 20 -621 95
-64 27 -175 84 -192 100 -2 2 4 18 14 37 30 58 40 116 33 197 -14 161 -116
271 -251 271 -43 0 -133 -30 -191 -65 l-45 -25 -32 37 c-81 92 -139 214 -180
378 -34 136 -21 236 35 264 38 20 121 5 193 -34z m603 7 c-7 -2 -18 1 -23 6
-8 8 -4 9 13 5 13 -4 18 -8 10 -11z m3006 -34 c-3 -7 -5 -2 -5 12 0 14 2 19 5
13 2 -7 2 -19 0 -25z m113 29 c0 -2 -15 -18 -34 -36 -26 -25 -36 -29 -41 -19
-5 7 -5 10 -1 6 9 -8 55 34 49 45 -2 4 3 7 11 7 9 0 16 -1 16 -3z m-2024 -22
c-17 -17 -35 -19 -56 -5 -11 8 -8 9 13 4 17 -4 27 -2 27 5 0 6 7 11 16 11 14
0 14 -2 0 -15z m-102 -21 c10 -25 -1 -29 -14 -5 -6 12 -7 21 -1 21 5 0 12 -7
15 -16z m2056 -38 c0 -2 -8 -10 -17 -17 -16 -13 -17 -12 -4 4 13 16 21 21 21
13z m-1493 -107 c30 -19 34 -24 19 -27 -27 -6 -98 16 -126 39 l-25 20 47 -4
c25 -2 64 -15 85 -28z m-112 -59 c12 -11 50 -26 86 -34 35 -8 56 -14 47 -15
-10 -1 -18 -6 -18 -12 0 -5 -4 -7 -10 -4 -5 3 -10 1 -10 -4 0 -6 -6 -10 -12
-8 -7 1 -12 -4 -10 -11 1 -8 -2 -11 -7 -7 -6 3 -35 -20 -65 -51 -46 -46 -54
-59 -46 -75 12 -21 40 -15 40 9 0 8 3 13 6 10 3 -3 -5 -37 -17 -74 -12 -38
-24 -75 -25 -81 -5 -20 -79 -16 -114 5 -16 10 -28 21 -25 23 2 3 -4 5 -13 6
-42 3 -102 16 -102 22 0 3 24 19 54 34 99 52 196 174 196 247 0 44 13 50 45
20z m-205 -60 c0 -5 -7 -10 -15 -10 -8 0 -15 5 -15 10 0 6 7 10 15 10 8 0 15
-4 15 -10z m20 -34 c0 -3 -15 -14 -32 -26 l-33 -22 30 26 c31 27 35 29 35 22z
m291 -169 c-10 -9 -11 -8 -5 6 3 10 9 15 12 12 3 -3 0 -11 -7 -18z m1436 -224
c-2 -21 -4 -6 -4 32 0 39 2 55 4 38 2 -18 2 -50 0 -70z m-3295 50 c60 -54 80
-173 45 -265 -36 -93 -146 -156 -252 -145 -152 16 -242 148 -220 323 6 47 9
54 23 48 9 -4 45 -10 78 -12 53 -3 69 1 115 25 111 58 168 65 211 26z m3295
-125 c-3 -8 -6 -5 -6 6 -1 11 2 17 5 13 3 -3 4 -12 1 -19z m-3384 -489 c44 -1
195 -36 164 -38 -10 -1 -15 -6 -11 -12 3 -6 15 -9 25 -6 11 3 19 1 19 -4 0 -5
-4 -9 -10 -9 -5 0 -10 -7 -10 -15 0 -8 5 -15 10 -15 6 0 10 -9 10 -20 0 -16 7
-20 35 -20 28 0 35 -4 35 -20 0 -11 -7 -20 -15 -20 -12 0 -15 -13 -15 -60 0
-53 -2 -60 -20 -60 -13 0 -20 -7 -20 -20 0 -13 7 -20 20 -20 18 0 20 -7 20
-60 0 -55 -2 -60 -21 -60 -20 0 -21 -4 -15 -40 3 -22 3 -58 0 -80 -6 -39 -8
-40 -44 -40 -21 0 -40 -4 -42 -9 -5 -14 -63 -18 -61 -4 1 6 -4 14 -12 17 -24
9 -17 -11 12 -33 37 -30 23 -36 -25 -12 -48 24 -65 62 -88 194 -24 134 -12
555 14 479 2 -7 22 -12 45 -13z m2050 -264 c3 -277 -17 -355 -102 -412 -37
-25 -31 -29 18 -12 83 29 112 -45 43 -110 -47 -45 -93 -60 -198 -68 -165 -12
-290 45 -346 157 -15 30 -28 63 -28 73 0 16 5 15 38 -11 20 -16 52 -37 69 -46
38 -19 174 -39 224 -33 24 3 19 4 -20 5 -30 1 -51 5 -47 9 4 4 26 6 49 5 l42
-1 -40 14 c-37 14 -38 14 -7 10 24 -3 32 -1 32 10 0 8 5 15 10 15 6 0 10 9 10
19 0 16 -8 20 -37 23 -27 2 -39 8 -41 21 -2 11 3 17 15 17 15 0 15 -2 3 -10
-8 -5 -11 -12 -7 -17 14 -13 27 21 24 62 -1 22 -7 40 -14 40 -6 0 -15 3 -19 8
-12 12 -46 8 -38 -5 4 -7 3 -8 -5 -4 -6 4 -9 11 -6 15 2 5 -6 9 -20 9 -14 0
-23 -4 -20 -8 2 -3 -2 -7 -10 -7 -10 0 -12 4 -5 12 5 7 6 16 2 20 -4 5 -1 5 6
1 7 -4 32 -10 54 -13 37 -4 40 -3 29 11 -11 13 -11 16 0 17 8 0 9 3 4 5 -7 3
-9 23 -5 52 l5 47 70 8 c39 4 94 7 123 5 l52 -3 0 37 c0 20 -5 38 -12 40 -9 3
-9 13 -1 39 6 19 11 26 12 17 1 -22 8 -23 26 -4 8 8 15 41 17 82 2 38 4 -2 5
-90 1 -87 5 -161 8 -164 3 -3 5 80 5 185 l0 190 -32 -4 c-31 -3 -31 -2 7 10
l40 13 8 -41 c5 -22 10 -130 10 -240z m-661 237 c-32 -24 -147 -69 -230 -88
-79 -19 -263 -21 -349 -4 -72 14 -186 50 -179 57 2 3 31 -1 63 -8 38 -9 128
-14 258 -14 205 1 283 12 410 59 52 19 54 19 27 -2z m515 12 c-3 -3 -12 -4
-19 -1 -8 3 -5 6 6 6 11 1 17 -2 13 -5z m-72 -24 c-3 -5 -14 -10 -23 -9 -14 0
-13 2 3 9 27 11 27 11 20 0z m-1580 -40 c3 -5 1 -10 -4 -10 -6 0 -11 5 -11 10
0 6 2 10 4 10 3 0 8 -4 11 -10z m1485 6 c0 -2 -8 -10 -17 -17 -16 -13 -17 -12
-4 4 13 16 21 21 21 13z m-54 -54 c-17 -16 -18 -16 -5 5 7 12 15 20 18 17 3
-2 -3 -12 -13 -22z m-1391 -2 c3 -5 1 -10 -4 -10 -6 0 -11 5 -11 10 0 6 2 10
4 10 3 0 8 -4 11 -10z m1334 -106 c-6 -8 -15 -12 -18 -8 -3 4 0 9 7 11 6 3 9
10 6 15 -4 7 -2 8 5 4 9 -6 9 -11 0 -22z m-1268 -37 c-10 -9 -11 -8 -5 6 3 10
9 15 12 12 3 -3 0 -11 -7 -18z m1229 -54 c-11 -17 -11 -17 -6 0 3 10 6 24 7
30 0 9 2 9 5 0 3 -7 0 -20 -6 -30z m-1229 -23 c-7 -4 -12 -11 -12 -16 2 -16
-22 -10 -24 6 -2 10 7 16 23 17 15 0 20 -2 13 -7z m1286 -27 c-3 -10 -5 -4 -5
12 0 17 2 24 5 18 2 -7 2 -21 0 -30z m-1285 -76 c-21 -22 -58 -34 -46 -15 3 5
9 6 13 3 5 -2 16 4 26 15 10 11 20 20 23 20 3 0 -4 -10 -16 -23z m1328 19 c0
-2 -15 -6 -34 -8 -19 -2 -32 0 -30 4 5 8 64 12 64 4z m-1373 -83 c-14 -14 -19
-15 -29 -4 -11 10 -10 11 3 6 10 -4 20 -2 24 4 3 6 9 11 13 11 3 0 -1 -8 -11
-17z m1424 -16 c-10 -9 -11 -8 -5 6 3 10 9 15 12 12 3 -3 0 -11 -7 -18z m-21
3 c0 -5 -5 -10 -11 -10 -5 0 -7 5 -4 10 3 6 8 10 11 10 2 0 4 -4 4 -10z
m-1181 -142 c-42 -108 -104 -157 -231 -184 -136 -29 -269 -4 -329 62 -38 41
-43 67 -20 95 l19 24 66 -17 c36 -10 73 -15 83 -11 11 4 14 3 9 -5 -5 -8 5
-12 32 -12 22 0 61 -3 88 -6 36 -4 45 -3 34 5 -13 9 -13 11 3 11 9 0 17 -4 17
-8 0 -14 112 9 140 28 87 58 105 70 107 70 2 0 -6 -24 -18 -52z m-134 4 c-3
-3 -11 0 -18 7 -9 10 -8 11 6 5 10 -3 15 -9 12 -12z m-210 -2 c3 -5 -3 -10
-14 -10 -12 0 -21 5 -21 10 0 6 6 10 14 10 8 0 18 -4 21 -10z m63 -26 c-3 -2
-27 -6 -54 -9 -33 -4 -42 -2 -29 3 11 5 25 8 30 5 6 -2 17 6 25 17 12 17 15
18 23 4 5 -8 7 -17 5 -20z"/>
<path d="M4628 8793 c6 -2 18 -2 25 0 6 3 1 5 -13 5 -14 0 -19 -2 -12 -5z"/>
<path d="M4555 8780 c-27 -7 -28 -8 -5 -8 14 0 34 3 45 8 25 11 2 11 -40 0z"/>
<path d="M4415 8743 c-27 -9 -44 -18 -37 -20 7 -3 20 -1 30 3 9 4 21 6 25 5 4
-1 18 5 30 14 26 19 16 18 -48 -2z"/>
<path d="M4340 8709 c0 -5 5 -7 10 -4 6 3 10 8 10 11 0 2 -4 4 -10 4 -5 0 -10
-5 -10 -11z"/>
<path d="M4280 8693 l-35 -14 35 6 c19 3 39 10 44 15 13 13 0 11 -44 -7z"/>
<path d="M4210 8665 c-19 -23 -8 -25 14 -4 11 11 15 19 9 19 -6 0 -16 -7 -23
-15z"/>
<path d="M4155 8644 l-30 -14 30 6 c31 6 41 11 34 18 -2 2 -17 -2 -34 -10z"/>
<path d="M4715 8624 c-34 -17 -85 -63 -85 -76 0 -5 12 3 28 17 15 14 39 31 54
38 15 6 30 17 33 24 6 16 6 16 -30 -3z"/>
<path d="M4101 8621 c-8 -5 -9 -11 -3 -15 5 -3 12 1 16 9 6 17 6 18 -13 6z"/>
<path d="M4040 8594 c-14 -8 -18 -14 -10 -14 8 1 24 7 34 15 24 19 10 18 -24
-1z"/>
<path d="M4877 8503 c-4 -3 -7 -11 -7 -17 0 -6 5 -5 12 2 6 6 9 14 7 17 -3 3
-9 2 -12 -2z"/>
<path d="M3930 8470 c-8 -5 -12 -12 -9 -15 4 -3 12 1 19 10 14 17 11 19 -10 5z"/>
<path d="M3455 8224 c-23 -20 -32 -31 -20 -27 20 7 69 52 63 59 -2 1 -21 -13
-43 -32z"/>
<path d="M6760 8169 c0 -11 4 -18 10 -14 5 3 7 12 3 20 -7 21 -13 19 -13 -6z"/>
<path d="M3339 8123 c-13 -16 -12 -17 4 -4 9 7 17 15 17 17 0 8 -8 3 -21 -13z"/>
<path d="M6510 8104 c0 -11 52 -64 62 -64 18 0 6 19 -27 44 -19 15 -35 24 -35
20z"/>
<path d="M6380 8002 c0 -4 15 -16 33 -26 l32 -19 -24 26 c-24 27 -41 34 -41
19z"/>
<path d="M4320 7900 c0 -13 -7 -20 -20 -20 -13 0 -20 -7 -20 -20 0 -13 -7 -20
-20 -20 -17 0 -20 -7 -20 -40 l0 -40 240 0 240 0 0 43 0 42 -76 -3 c-69 -3
-76 -2 -81 17 -4 17 -13 21 -44 21 -32 0 -39 3 -39 20 0 18 -7 20 -80 20 -73
0 -80 -2 -80 -20z"/>
<path d="M5600 7880 c0 -33 -3 -40 -20 -40 -13 0 -20 -7 -20 -20 0 -18 7 -20
60 -20 l60 0 0 40 c0 33 -3 40 -20 40 -13 0 -20 7 -20 20 0 13 -7 20 -20 20
-17 0 -20 -7 -20 -40z"/>
<path d="M3104 7878 l-19 -23 23 19 c12 11 22 21 22 23 0 8 -8 2 -26 -19z"/>
<path d="M3065 7836 c-6 -8 -20 -28 -33 -45 -13 -17 -22 -31 -19 -31 7 0 69
81 65 85 -2 2 -8 -2 -13 -9z"/>
<path d="M2926 7643 c-37 -56 -69 -112 -71 -124 -3 -13 -10 -26 -17 -30 -12
-8 -20 -21 -82 -146 -65 -132 -87 -185 -82 -200 3 -8 2 -12 -3 -9 -9 6 -75
-168 -110 -289 -32 -113 -62 -258 -57 -277 2 -10 1 -16 -3 -14 -13 8 -43 -212
-32 -231 8 -14 9 -9 5 18 -4 25 -1 40 10 52 12 11 16 29 13 60 -2 36 0 43 15
42 10 -1 21 -5 25 -10 5 -4 2 -5 -5 0 -10 5 -13 1 -10 -16 2 -19 10 -25 38
-27 19 -2 39 -9 43 -15 9 -13 0 70 -9 85 -3 4 -12 8 -21 8 -11 0 -14 6 -9 25
5 19 3 23 -9 19 -15 -6 -22 18 -16 56 1 8 2 30 1 48 -1 57 19 34 23 -25 2 -32
4 -7 3 55 0 74 4 116 12 124 9 9 12 7 12 -10 0 -12 6 -22 13 -22 18 1 47 25
47 41 0 8 -8 4 -20 -11 l-20 -25 12 32 c7 17 16 30 20 27 4 -3 8 2 8 11 0 8 8
18 18 22 37 13 52 36 52 78 0 30 -5 45 -16 49 -11 4 -13 10 -7 19 16 20 23 47
13 47 -6 0 -10 -9 -10 -20 0 -11 -5 -20 -11 -20 -5 0 -7 5 -4 11 4 6 -1 16
-11 23 -16 13 -17 15 -2 30 9 9 24 16 32 16 11 0 16 9 16 26 0 19 -4 25 -15
21 -12 -5 -12 -2 -3 18 6 13 14 22 18 20 11 -7 30 43 23 61 -4 11 1 22 12 30
25 18 39 18 31 -1 -3 -8 -1 -15 4 -15 6 0 10 8 10 18 0 14 7 17 40 14 l40 -4
0 69 c0 58 -3 70 -20 81 -23 14 -18 35 5 25 10 -3 15 1 15 15 0 11 -4 22 -10
24 -12 4 29 68 43 67 8 0 8 -2 0 -6 -23 -9 -14 -23 15 -23 42 0 72 37 72 89 0
40 -2 43 -22 38 l-23 -6 23 19 c13 11 22 25 19 32 -2 7 -34 -33 -71 -89z m25
0 c-8 -15 -10 -15 -11 -2 0 17 10 32 18 25 2 -3 -1 -13 -7 -23z m-111 -198 c0
-12 -40 -84 -50 -90 -17 -11 -11 16 10 42 11 14 20 32 20 39 0 8 5 14 10 14 6
0 10 -2 10 -5z m-173 -400 c-4 -8 -11 -15 -17 -15 -7 0 -7 6 0 21 13 23 26 19
17 -6z m-17 -101 c0 -25 -4 -34 -16 -34 -13 0 -14 -3 -4 -15 9 -11 9 -19 -3
-35 -10 -14 -17 -18 -22 -10 -10 17 -13 60 -4 54 5 -3 14 15 21 40 14 51 28
51 28 0z"/>
<path d="M2605 6881 c-3 -5 -1 -12 5 -16 5 -3 10 1 10 9 0 18 -6 21 -15 7z"/>
<path d="M6608 7473 c7 -3 16 -2 19 1 4 3 -2 6 -13 5 -11 0 -14 -3 -6 -6z"/>
<path d="M3200 7270 c0 -5 5 -10 11 -10 5 0 7 5 4 10 -3 6 -8 10 -11 10 -2 0
-4 -4 -4 -10z"/>
<path d="M7120 7240 c-8 -5 -11 -12 -7 -17 5 -4 11 -3 15 3 4 6 14 14 22 17
13 5 13 5 0 6 -8 0 -22 -3 -30 -9z"/>
<path d="M5530 7230 c0 -5 5 -10 10 -10 6 0 10 5 10 10 0 6 -4 10 -10 10 -5 0
-10 -4 -10 -10z"/>
<path d="M5490 7220 c0 -5 7 -10 15 -10 8 0 15 5 15 10 0 6 -7 10 -15 10 -8 0
-15 -4 -15 -10z"/>
<path d="M4738 7193 c7 -3 16 -2 19 1 4 3 -2 6 -13 5 -11 0 -14 -3 -6 -6z"/>
<path d="M4805 7135 c11 -9 19 -20 18 -25 -2 -5 3 -7 11 -4 8 3 21 -5 30 -18
9 -12 16 -18 16 -12 0 14 -38 48 -70 63 -24 12 -24 12 -5 -4z"/>
<path d="M7285 7100 c-3 -5 3 -10 14 -10 12 0 21 5 21 10 0 6 -6 10 -14 10 -8
0 -18 -4 -21 -10z"/>
<path d="M7290 7036 c0 -2 8 -10 18 -17 15 -13 16 -12 3 4 -13 16 -21 21 -21
13z"/>
<path d="M2705 6669 c-4 -6 -5 -12 -2 -15 2 -3 7 2 10 11 7 17 1 20 -8 4z"/>
<path d="M2445 6265 c-3 -31 -4 -59 -1 -63 3 -3 6 10 6 29 0 25 3 30 10 19 6
-10 7 -2 3 25 -8 55 -10 54 -18 -10z"/>
<path d="M2433 6120 c0 -36 2 -50 4 -32 2 17 2 47 0 65 -2 17 -4 3 -4 -33z"/>
<path d="M2462 6020 c0 -14 2 -19 5 -12 2 6 2 18 0 25 -3 6 -5 1 -5 -13z"/>
<path d="M3666 6495 c-148 -39 -246 -95 -351 -200 -99 -98 -154 -189 -194
-318 -99 -324 10 -684 271 -897 74 -60 197 -123 288 -147 101 -27 293 -24 395
5 307 89 512 342 555 689 43 344 -150 693 -458 830 -150 66 -345 81 -506 38z
m21 -230 c70 -21 123 -63 158 -126 26 -47 30 -64 30 -134 0 -96 -21 -142 -90
-203 -182 -160 -457 -40 -458 199 0 85 27 143 95 204 78 70 165 90 265 60z
m-337 -630 c16 -97 59 -175 147 -263 144 -144 298 -189 488 -143 l70 16 -3 42
c-10 121 105 219 224 193 25 -6 48 -9 49 -8 22 26 53 121 57 176 1 17 5 32 8
32 3 0 24 -31 48 -68 48 -77 49 -100 5 -207 -14 -33 -27 -80 -30 -105 -3 -24
-11 -56 -18 -70 -28 -53 -101 -100 -157 -100 -18 0 -68 -15 -113 -34 -97 -42
-213 -61 -314 -52 -279 26 -524 232 -556 469 -6 40 -2 52 36 116 24 39 44 69
46 67 2 -2 8 -29 13 -61z"/>
<path d="M6195 6506 c-171 -40 -274 -95 -386 -206 -75 -74 -93 -99 -138 -190
-66 -137 -84 -214 -84 -365 0 -278 106 -511 306 -671 168 -133 376 -186 586
-150 171 30 282 88 411 216 66 65 96 104 127 165 81 159 108 284 100 453 -7
138 -24 208 -78 317 -100 204 -268 348 -484 415 -90 28 -272 36 -360 16z m32
-262 c197 -95 190 -391 -12 -490 -50 -24 -63 -26 -138 -22 -124 7 -200 56
-237 154 -94 251 146 473 387 358z m-342 -731 c47 -96 156 -208 243 -251 108
-53 222 -64 333 -32 l37 10 4 70 c4 74 19 105 71 144 37 27 142 34 185 12 17
-9 35 -16 41 -16 17 0 73 127 80 182 l6 53 42 -63 c35 -53 41 -68 36 -100 -8
-58 -31 -122 -64 -182 -17 -30 -43 -76 -56 -102 -34 -64 -50 -76 -140 -108
-43 -15 -104 -37 -136 -49 -172 -64 -389 -42 -548 54 -138 84 -254 251 -266
380 -5 58 -4 62 38 123 l44 64 7 -59 c5 -34 22 -88 43 -130z"/>
<path d="M5030 5371 c-135 -44 -204 -158 -129 -213 25 -19 28 -19 57 -4 29 15
31 15 37 -5 26 -80 220 -76 241 6 6 23 8 24 27 10 75 -52 131 44 72 121 -14
19 -46 46 -72 61 -38 22 -60 27 -127 30 -45 1 -92 -1 -106 -6z m138 -53 c21
-21 13 -46 -18 -57 -55 -19 -118 6 -104 42 10 26 100 37 122 15z"/>
<path d="M5095 4842 c-6 -4 -21 -21 -33 -39 -30 -42 -96 -73 -158 -73 -57 0
-92 20 -126 70 -57 85 -132 11 -79 -76 42 -69 116 -104 220 -104 64 0 128 22
183 62 14 10 21 9 40 -9 59 -56 199 -75 283 -39 97 41 156 145 107 189 -31 29
-58 21 -89 -25 -35 -52 -64 -68 -126 -68 -62 0 -111 23 -145 69 -30 40 -42 51
-57 51 -5 0 -15 -4 -20 -8z"/>
<path d="M2188 6323 c6 -2 18 -2 25 0 6 3 1 5 -13 5 -14 0 -19 -2 -12 -5z"/>
<path d="M2242 6300 c0 -14 2 -19 5 -12 2 6 2 18 0 25 -3 6 -5 1 -5 -13z"/>
<path d="M1820 6213 c-95 -71 -189 -181 -175 -204 4 -5 11 -7 16 -4 12 8 11
-1 -2 -28 -9 -21 -9 -21 5 -3 8 10 13 32 12 51 -4 41 21 85 36 64 8 -11 9 -10
5 3 -7 21 12 37 40 32 14 -2 29 6 45 26 12 16 29 30 36 30 6 0 13 3 13 8 3 14
6 52 5 52 0 0 -17 -12 -36 -27z m-30 -52 c-11 -21 -30 -37 -30 -25 0 8 30 44
37 44 2 0 -1 -9 -7 -19z m-120 -135 c0 -3 -4 -8 -10 -11 -5 -3 -10 -1 -10 4 0
6 5 11 10 11 6 0 10 -2 10 -4z"/>
<path d="M2242 6130 c0 -14 2 -19 5 -12 2 6 2 18 0 25 -3 6 -5 1 -5 -13z"/>
<path d="M1973 6113 c9 -2 23 -2 30 0 6 3 -1 5 -18 5 -16 0 -22 -2 -12 -5z"/>
<path d="M2043 6113 c15 -2 39 -2 55 0 15 2 2 4 -28 4 -30 0 -43 -2 -27 -4z"/>
<path d="M1572 5874 c-11 -38 -24 -80 -27 -94 l-6 -25 20 25 c11 14 21 28 21
33 0 4 7 7 16 7 8 0 12 5 9 10 -3 6 -2 10 3 10 10 0 32 44 32 65 0 8 -9 15
-19 15 -11 0 -21 5 -23 12 -2 6 -14 -19 -26 -58z"/>
<path d="M1565 5759 c-4 -6 -5 -12 -2 -15 2 -3 7 2 10 11 7 17 1 20 -8 4z"/>
<path d="M1531 5724 c0 -11 3 -14 6 -6 3 7 2 16 -1 19 -3 4 -6 -2 -5 -13z"/>
<path d="M1522 5670 c0 -19 2 -27 5 -17 2 9 2 25 0 35 -3 9 -5 1 -5 -18z"/>
<path d="M8050 6336 c0 -2 16 -6 35 -8 19 -2 35 0 35 4 0 4 -16 8 -35 8 -19 0
-35 -2 -35 -4z"/>
<path d="M8157 6329 c7 -7 15 -10 18 -7 3 3 -2 9 -12 12 -14 6 -15 5 -6 -5z"/>
<path d="M8237 6299 c6 -6 17 -11 24 -13 8 -1 43 -16 79 -34 36 -17 56 -25 45
-16 -49 38 -179 94 -148 63z"/>
<path d="M8160 6221 c0 -18 6 -21 41 -21 33 0 40 3 37 18 -2 12 -14 18 -41 20
-32 3 -37 0 -37 -17z"/>
<path d="M8600 6010 c0 -5 5 -10 11 -10 5 0 7 5 4 10 -3 6 -8 10 -11 10 -2 0
-4 -4 -4 -10z"/>
<path d="M8000 3699 c0 -6 9 -13 20 -16 11 -3 20 -9 20 -14 0 -5 5 -9 11 -9
15 0 -7 27 -33 41 -12 7 -18 6 -18 -2z"/>
<path d="M8070 3648 c0 -3 9 -15 20 -28 11 -13 20 -19 20 -13 0 5 -9 18 -20
28 -11 10 -20 16 -20 13z"/>
<path d="M7735 3624 c-24 -12 -25 -14 -5 -8 14 3 37 7 52 8 36 2 48 16 12 15
-16 0 -42 -7 -59 -15z"/>
<path d="M8135 3520 c-3 -5 -1 -10 4 -10 6 0 11 5 11 10 0 6 -2 10 -4 10 -3 0
-8 -4 -11 -10z"/>
<path d="M7334 3369 c1 -22 4 -24 18 -16 9 6 14 17 11 25 -4 10 -8 11 -13 2
-6 -9 -9 -9 -13 1 -2 8 -4 2 -3 -12z"/>
<path d="M7482 3320 c0 -14 2 -19 5 -12 2 6 2 18 0 25 -3 6 -5 1 -5 -13z"/>
<path d="M7312 3265 c0 -33 4 -71 8 -85 7 -23 8 -22 8 10 0 19 -3 58 -8 85
l-7 50 -1 -60z"/>
<path d="M7328 3124 c-5 -4 -8 -23 -8 -43 1 -30 2 -33 11 -18 11 19 8 73 -3
61z"/>
<path d="M7324 2983 c0 -33 1 -41 3 -20 5 43 20 49 26 10 2 -17 5 -10 6 20 1
39 -2 47 -17 47 -14 0 -17 -10 -18 -57z"/>
<path d="M7332 2820 c0 -14 2 -19 5 -12 2 6 2 18 0 25 -3 6 -5 1 -5 -13z"/>
<path d="M7314 2684 c-11 -80 -10 -110 1 -58 4 16 11 38 16 49 4 11 5 35 1 54
-7 31 -9 26 -18 -45z"/>
<path d="M7410 2530 c0 -5 6 -10 14 -10 8 0 18 5 21 10 3 6 -3 10 -14 10 -12
0 -21 -4 -21 -10z"/>
<path d="M6953 2236 c-35 -11 -63 -24 -63 -28 0 -4 29 3 64 16 35 14 68 21 72
18 4 -4 4 -1 0 6 -4 6 -8 12 -9 11 -1 -1 -30 -11 -64 -23z"/>
<path d="M6620 2209 c36 -15 189 -23 230 -12 28 8 13 10 -70 9 -58 0 -123 3
-145 7 -33 6 -36 5 -15 -4z"/>
<path d="M6750 2170 c0 -5 7 -10 15 -10 8 0 15 5 15 10 0 6 -7 10 -15 10 -8 0
-15 -4 -15 -10z"/>
<path d="M5570 3435 c0 -2 6 -8 13 -14 10 -8 14 -7 14 2 0 8 -6 14 -14 14 -7
0 -13 -1 -13 -2z"/>
<path d="M5625 3401 c-3 -6 -11 -9 -16 -6 -15 10 -10 -2 8 -16 9 -8 14 -9 10
-2 -4 6 -1 13 5 16 7 2 10 7 7 11 -4 4 -10 2 -14 -3z"/>
<path d="M4450 3312 c0 -5 7 -9 15 -9 8 0 12 4 9 9 -3 4 -9 8 -15 8 -5 0 -9
-4 -9 -8z"/>
<path d="M6186 3155 c-3 -8 -1 -15 4 -15 6 0 10 7 10 15 0 8 -2 15 -4 15 -2 0
-6 -7 -10 -15z"/>
<path d="M6360 3115 c0 -5 5 -17 10 -25 5 -8 10 -10 10 -5 0 6 -5 17 -10 25
-5 8 -10 11 -10 5z"/>
<path d="M6178 3033 c7 -3 16 -2 19 1 4 3 -2 6 -13 5 -11 0 -14 -3 -6 -6z"/>
<path d="M6151 2943 c-1 -7 -13 -13 -28 -14 l-28 0 24 -10 c35 -14 50 -8 40
16 -4 11 -8 14 -8 8z"/>
<path d="M6068 2893 c7 -3 16 -2 19 1 4 3 -2 6 -13 5 -11 0 -14 -3 -6 -6z"/>
<path d="M6120 2880 c34 -11 60 -11 35 0 -11 5 -29 8 -40 8 -16 0 -15 -2 5 -8z"/>
<path d="M5992 2700 c0 -14 2 -19 5 -12 2 6 2 18 0 25 -3 6 -5 1 -5 -13z"/>
<path d="M5858 3045 c-39 -38 -43 -45 -26 -45 12 0 18 3 14 7 -3 4 10 24 31
45 51 52 38 48 -19 -7z"/>
<path d="M5895 3050 c-3 -6 1 -7 9 -4 18 7 21 14 7 14 -6 0 -13 -4 -16 -10z"/>
<path d="M4092 2097 c-1 -71 2 -126 6 -123 4 2 6 -25 4 -61 -3 -38 -1 -63 5
-60 5 3 7 -9 5 -28 -2 -18 0 -41 6 -50 6 -12 10 24 11 113 1 81 -2 133 -8 137
-7 4 -8 -1 -4 -12 4 -11 2 -15 -3 -10 -5 5 -12 57 -15 115 l-5 107 -2 -128z"/>
<path d="M4200 2200 c0 -5 7 -7 15 -4 8 4 15 8 15 10 0 2 -7 4 -15 4 -8 0 -15
-4 -15 -10z"/>
<path d="M4110 2086 c0 -19 3 -37 8 -40 4 -2 6 13 4 35 -5 48 -12 51 -12 5z"/>
<path d="M4121 1735 c1 -19 18 -51 18 -35 0 8 -4 22 -9 30 -5 8 -9 11 -9 5z"/>
<path d="M4250 1695 c0 -8 7 -15 15 -15 8 0 15 7 15 15 0 8 -7 15 -15 15 -8 0
-15 -7 -15 -15z"/>
<path d="M4140 1670 c0 -5 5 -10 11 -10 5 0 7 5 4 10 -3 6 -8 10 -11 10 -2 0
-4 -4 -4 -10z"/>
<path d="M6122 1830 c0 -19 2 -27 5 -17 2 9 2 25 0 35 -3 9 -5 1 -5 -18z"/>
<path d="M6090 1735 c0 -5 5 -17 10 -25 5 -8 10 -10 10 -5 0 6 -5 17 -10 25
-5 8 -10 11 -10 5z"/>
<path d="M2302 2527 c-41 -44 -73 -161 -87 -320 l-7 -78 -52 51 c-56 56 -135
100 -178 100 -19 0 -33 -8 -44 -26 -16 -24 -16 -28 6 -82 13 -31 38 -87 57
-124 18 -38 31 -68 29 -68 -3 0 -21 11 -41 25 -64 43 -144 68 -233 73 -69 3
-86 1 -103 -14 -10 -9 -19 -25 -19 -35 0 -9 45 -62 100 -118 55 -55 100 -104
100 -110 0 -5 -22 -26 -50 -46 -27 -20 -50 -41 -50 -46 0 -5 -5 -8 -12 -6 -13
2 -20 -41 -7 -48 4 -3 16 6 26 19 14 18 28 24 51 22 17 -1 29 2 26 6 -3 4 0 8
5 8 6 0 11 -7 11 -15 0 -8 9 -15 20 -15 12 0 20 -7 20 -17 0 -12 3 -14 8 -6 5
8 24 4 67 -17 33 -15 70 -31 82 -35 22 -6 22 -5 8 22 -8 15 -29 57 -46 93 -37
78 -90 149 -165 220 -30 29 -54 54 -52 55 2 2 28 -5 58 -15 97 -33 192 -92
279 -175 46 -44 82 -72 78 -63 -3 9 -11 36 -17 60 -11 39 -97 296 -115 343 -5
12 11 2 39 -25 64 -60 162 -211 183 -279 9 -31 19 -59 22 -63 3 -4 4 88 3 204
-3 166 0 232 13 305 9 51 20 95 25 98 8 5 25 -118 40 -300 5 -66 13 -144 16
-173 l6 -52 38 75 c56 111 142 220 230 289 25 20 48 36 52 36 4 0 -4 -33 -18
-72 -13 -40 -50 -156 -80 -258 -31 -102 -60 -189 -65 -195 -13 -13 -11 -25 4
-25 9 0 12 -10 9 -31 l-4 -30 37 25 c21 15 42 26 48 26 5 0 31 9 56 21 51 24
82 37 156 69 48 21 49 22 25 32 -14 5 -62 8 -108 6 -69 -2 -82 -1 -82 13 0 8
16 62 36 120 54 160 104 340 104 376 0 35 -21 53 -60 53 -47 0 -145 -65 -232
-154 l-88 -89 0 44 c-1 77 -29 249 -49 294 -29 66 -71 82 -109 42z m-562 -841
c0 -2 -8 -10 -17 -17 -16 -13 -17 -12 -4 4 13 16 21 21 21 13z"/>
<path d="M8518 2336 c-86 -29 -166 -85 -243 -169 l-65 -71 0 89 c0 109 -19
158 -63 163 -16 2 -38 -3 -51 -11 -28 -19 -90 -135 -106 -199 -7 -27 -15 -48
-17 -48 -3 0 -23 16 -44 35 -55 49 -100 49 -124 -1 -15 -31 -15 -46 -5 -120 6
-46 13 -90 16 -98 4 -10 -12 -12 -77 -8 -60 3 -80 2 -75 -7 4 -6 11 -11 15
-11 5 0 47 -22 95 -50 47 -27 92 -47 100 -44 8 3 17 1 21 -5 15 -25 22 -8 15
37 -4 26 -11 90 -15 142 l-7 95 22 -20 c23 -20 90 -149 90 -172 0 -7 5 -13 10
-13 6 0 10 12 10 28 0 27 33 166 65 275 29 98 40 61 43 -149 l4 -184 50 84
c28 47 73 112 101 146 50 62 201 190 224 190 14 0 -13 -57 -55 -120 -32 -47
-145 -280 -171 -352 -22 -62 -16 -74 15 -32 48 64 145 120 247 143 37 9 37 9
-46 -73 -46 -45 -87 -91 -91 -104 -4 -12 -12 -22 -17 -22 -9 0 -18 -18 -34
-68 -6 -22 -6 -23 17 -11 29 16 28 16 118 32 41 8 87 19 102 25 22 9 29 8 44
-9 17 -19 7 -28 -12 -9 -12 12 -44 3 -44 -12 0 -7 5 -6 13 0 10 9 19 8 35 -3
15 -11 23 -12 28 -4 4 7 -14 32 -44 61 -29 27 -52 53 -52 58 0 5 33 37 73 71
39 34 75 67 79 73 15 22 8 55 -14 67 -32 17 -155 15 -205 -4 -24 -9 -43 -14
-43 -11 0 3 13 24 28 47 38 56 167 277 176 301 9 26 -17 62 -48 68 -14 3 -54
-4 -88 -16z"/>
<path d="M3331 2330 c14 -31 19 -36 19 -24 0 6 -7 19 -16 30 -14 18 -14 18 -3
-6z"/>
<path d="M3336 2263 c-6 -14 -5 -15 5 -6 7 7 10 15 7 18 -3 3 -9 -2 -12 -12z"/>
<path d="M3215 2219 c-4 -6 -5 -12 -2 -15 2 -3 7 2 10 11 7 17 1 20 -8 4z"/>
<path d="M7560 1743 c-23 -12 -44 -36 -63 -73 -26 -49 -28 -63 -25 -125 5 -67
37 -155 57 -155 4 0 11 38 13 85 7 112 31 160 79 160 27 0 38 -7 56 -33 12
-19 25 -55 28 -80 3 -26 9 -63 13 -82 l8 -34 34 54 c40 66 41 109 4 188 -45
93 -130 133 -204 95z"/>
<path d="M8680 1596 c0 -2 8 -10 18 -17 15 -13 16 -12 3 4 -13 16 -21 21 -21
13z"/>
<path d="M2720 1492 c-42 -23 -87 -104 -96 -173 -6 -43 -3 -51 32 -98 21 -28
41 -51 45 -51 4 0 8 38 11 84 5 101 23 136 69 136 27 0 33 -6 55 -53 13 -30
27 -82 30 -116 6 -58 8 -60 24 -46 26 24 44 98 37 156 -16 131 -117 210 -207
161z"/>
<path d="M7375 1340 c-3 -5 1 -10 9 -10 9 0 16 5 16 10 0 6 -4 10 -9 10 -6 0
-13 -4 -16 -10z"/>
<path d="M8726 1325 c-9 -26 -7 -32 5 -12 6 10 9 21 6 23 -2 3 -7 -2 -11 -11z"/>
<path d="M4438 1223 c7 -3 16 -2 19 1 4 3 -2 6 -13 5 -11 0 -14 -3 -6 -6z"/>
<path d="M7168 703 c6 -2 18 -2 25 0 6 3 1 5 -13 5 -14 0 -19 -2 -12 -5z"/>
</g>
</svg>
